<svg id="Calque_1" data-name="Calque 1" xmlns="http://www.w3.org/2000/svg" xmlns:xlink="http://www.w3.org/1999/xlink" viewBox="0 0 70 70"><defs><style>.cls-1{fill:url(#Dégradé_sans_nom_2);}.cls-2{fill:url(#Dégradé_sans_nom_3);}.cls-3{fill:url(#Dégradé_sans_nom_3-2);}.cls-4{fill:url(#Dégradé_sans_nom_3-3);}.cls-5{fill:url(#Dégradé_sans_nom_3-4);}</style><linearGradient id="Dégradé_sans_nom_2" y1="35" x2="70" y2="35" gradientUnits="userSpaceOnUse"><stop offset="0" stop-color="#9c7214"/><stop offset="0.06" stop-color="#cfab5b"/><stop offset="0.17" stop-color="#9c7214"/><stop offset="0.29" stop-color="#e7b954"/><stop offset="0.55" stop-color="#9c7214"/><stop offset="1" stop-color="#cfab5b"/></linearGradient><linearGradient id="Dégradé_sans_nom_3" x1="-558.06" y1="-289.46" x2="-544.42" y2="-289.46" gradientTransform="matrix(-1, 0, 0, 1, -498.08, 314.62)" gradientUnits="userSpaceOnUse"><stop offset="0" stop-color="#95732b"/><stop offset="0.06" stop-color="#c9ab67"/><stop offset="0.17" stop-color="#95732b"/><stop offset="0.29" stop-color="#dfb965"/><stop offset="0.55" stop-color="#95732b"/><stop offset="1" stop-color="#c9ab67"/></linearGradient><linearGradient id="Dégradé_sans_nom_3-2" x1="-158.02" y1="-280.43" x2="-141.31" y2="-280.43" gradientTransform="matrix(1, 0, 0, -1, 171.56, -233.5)" xlink:href="#Dégradé_sans_nom_3"/><linearGradient id="Dégradé_sans_nom_3-3" x1="-840.09" y1="160.54" x2="-830.27" y2="160.54" gradientTransform="translate(-788.08 186.62) rotate(180)" xlink:href="#Dégradé_sans_nom_3"/><linearGradient id="Dégradé_sans_nom_3-4" x1="34.63" y1="55.17" x2="34.63" y2="14.64" gradientTransform="matrix(1, 0, 0, 1, 0, 0)" xlink:href="#Dégradé_sans_nom_3"/></defs><path class="cls-1" d="M35,1A34,34,0,1,1,1,35,34,34,0,0,1,35,1m0-1A35,35,0,1,0,70,35,35,35,0,0,0,35,0Z"/><polygon class="cls-2" points="59.01 16 60 16.72 47.3 34.32 46.32 33.6 59.01 16"/><polygon class="cls-3" points="14.56 58.07 13.52 57.31 29.24 35.8 30.27 36.56 14.56 58.07"/><polygon class="cls-4" points="42.18 31.71 45.26 27.5 51.04 19.57 52.02 20.29 46.12 28.35 43.05 32.59 42.18 31.71"/><path d="M36.22,16.4,40.31,29H53.53a1.68,1.68,0,0,1,1,3l-10.7,7.77,4.09,12.57a1.68,1.68,0,0,1-2.58,1.88l-10.7-7.77-10.7,7.77a1.68,1.68,0,0,1-2.58-1.88l4.08-12.57L14.74,32a1.68,1.68,0,0,1,1-3H29L33,16.4A1.68,1.68,0,0,1,36.22,16.4Z"/><path class="cls-5" d="M46.31,55.17A2.33,2.33,0,0,1,45,54.73L34.63,47.21,24.28,54.73a2.27,2.27,0,0,1-3.5-2.55L24.73,40,14.38,32.5a2.28,2.28,0,0,1,1.34-4.12H28.51l3.95-12.16a2.28,2.28,0,0,1,4.34,0l4,12.16H53.53a2.28,2.28,0,0,1,1.34,4.12L44.53,40l3.95,12.16a2.26,2.26,0,0,1-.83,2.55A2.31,2.31,0,0,1,46.31,55.17ZM34.63,45.72l11,8a1.08,1.08,0,0,0,1.66-1.2l-4.22-13,11.05-8a1.08,1.08,0,0,0-.64-2H39.87l-4.22-13a1,1,0,0,0-1-.75,1.06,1.06,0,0,0-1,.75l-4.22,13H15.72a1.08,1.08,0,0,0-.63,2l11.05,8-4.22,13a1.08,1.08,0,0,0,1.66,1.2Z"/></svg>